<svg width="192" height="38" viewBox="0 0 192 38" fill="none" xmlns="http://www.w3.org/2000/svg">
<g clip-path="url(#clip0_88223_565)">
<path d="M6.07 20.72V18.46C12.7536 17.5423 19.4937 17.0979 26.24 17.13C26.24 17.73 26.24 18.34 26.18 18.95C28.0976 18.099 30.1128 17.4877 32.18 17.13C30.8625 13.722 28.4618 10.8412 25.3471 8.93087C22.2325 7.02052 18.5764 6.1864 14.9414 6.55683C11.3064 6.92727 7.89379 8.48172 5.22852 10.9811C2.56325 13.4804 0.792971 16.7863 0.190002 20.39L6.07 20.72Z" fill="#FDC305"/>
<path d="M27.24 24.23C26.08 25.51 25.85 25.43 25.85 27.68C25.85 28.59 25.85 32.58 25.85 36.86C28.1425 35.346 30.0245 33.2879 31.328 30.8694C32.6315 28.4509 33.3158 25.7474 33.32 23C33.3068 21.9591 33.1997 20.9216 33 19.9C30.9282 21.1295 28.9968 22.5814 27.24 24.23Z" fill="#FDC305"/>
<path d="M6.36 25.72C6.36 25.72 2.57 24.28 1.17 23.89C0.787067 23.7693 0.396097 23.6757 0 23.61C0.108395 26.496 0.965588 29.3041 2.48739 31.7586C4.00919 34.2131 6.14326 36.2296 8.68 37.61L6.36 25.72Z" fill="#FDC305"/>
<path d="M26.29 17.12C26.3307 11.5986 25.862 6.08528 24.89 0.65C24.89 0.65 24.75 -0.64 24 0.41C23.4109 1.65814 23.0067 2.98539 22.8 4.35C18.5418 4.07577 14.2675 4.18957 10.03 4.69C9.24 2 7.85 0.75 7.18 1C6.51 1.25 6.46 4.31 6.46 4.31L6.13 18.41C12.8113 17.506 19.548 17.0749 26.29 17.12Z" fill="#F06351"/>
<path d="M12.41 14C12.41 13.91 13.41 14.68 13.82 14.92C14.23 15.16 14.43 15.34 14.43 15.51C14.43 15.68 14.16 15.85 13.8 15.85C13.44 15.85 12.89 15.73 12.8 15.58H13.74H14.03C13.4207 15.1294 12.8757 14.5978 12.41 14Z" fill="black"/>
<path d="M19.89 14.11L18.8 15.44C18.8 15.5 18.63 15.79 18.98 15.74C19.3942 15.6783 19.8023 15.5812 20.2 15.45C20.31 15.45 20.27 15.26 20.09 15.28C19.91 15.3 19.4 15.33 19.09 15.39L19.93 14.13C19.93 14.13 20 14 19.89 14.11Z" fill="black"/>
<path d="M16.75 20.2C17.2135 19.9958 17.5967 19.6443 17.84 19.2C18.12 18.55 17.84 18.29 17.4 18.2C16.7979 18.0902 16.1765 18.2116 15.66 18.54C15.27 18.9 15.32 19.26 15.61 19.54C15.9613 19.8062 16.3442 20.0279 16.75 20.2Z" fill="black"/>
<path d="M16.35 21.45C16.2379 21.6785 16.0816 21.8825 15.89 22.05C15.6052 22.2791 15.2551 22.4122 14.89 22.43C14.3638 22.472 13.8406 22.3189 13.42 22C13.2222 21.8808 13.0436 21.7324 12.89 21.56C12.7895 21.4491 12.6669 21.3605 12.53 21.3C12.53 21.3 13.28 25.4 15.1 26.05C16.92 26.7 17.24 25.3 17.3 24.92C17.3601 23.7851 17.0742 22.6588 16.48 21.69C16.46 21.38 16.45 21.58 16.35 21.45Z" fill="#F06351"/>
<path d="M14.71 22.59C14.2453 22.5247 13.7989 22.3651 13.3982 22.1209C12.9975 21.8767 12.651 21.5531 12.38 21.17C12.3667 21.157 12.3561 21.1414 12.3489 21.1242C12.3417 21.1071 12.338 21.0886 12.338 21.07C12.338 21.0514 12.3417 21.0329 12.3489 21.0158C12.3561 20.9986 12.3667 20.983 12.38 20.97C12.393 20.9567 12.4086 20.9461 12.4258 20.9389C12.4429 20.9317 12.4614 20.928 12.48 20.928C12.4986 20.928 12.5171 20.9317 12.5342 20.9389C12.5514 20.9461 12.567 20.9567 12.58 20.97C13.0848 21.6642 13.843 22.1313 14.69 22.27C15.0217 22.245 15.3426 22.1413 15.6261 21.9674C15.9096 21.7934 16.1475 21.5544 16.32 21.27L16.46 21.08L16.56 21.29C16.56 21.29 16.93 22.05 17.56 22.09C18.19 22.13 18.61 21.68 19.17 20.81C19.183 20.7967 19.1986 20.7861 19.2158 20.7789C19.2329 20.7717 19.2514 20.768 19.27 20.768C19.2886 20.768 19.3071 20.7717 19.3242 20.7789C19.3414 20.7861 19.357 20.7967 19.37 20.81C19.4023 20.8306 19.4255 20.8629 19.4348 20.9C19.4441 20.9372 19.4388 20.9766 19.42 21.01C18.78 22.01 18.15 22.45 17.54 22.41C17.308 22.3763 17.0867 22.2904 16.8927 22.1587C16.6987 22.0271 16.5371 21.8531 16.42 21.65C16.2233 21.9245 15.9676 22.1514 15.6717 22.3141C15.3758 22.4767 15.0472 22.571 14.71 22.59Z" fill="black"/>
<path d="M26.24 18.92C24.4445 20.5437 22.7512 22.277 21.17 24.11C19.5986 25.9361 17.8238 27.5768 15.88 29C15.66 28.47 14.26 27.49 14.26 27.49C14.26 27.49 11.13 25.35 9.08 23.67C7.97414 22.7373 6.9287 21.7353 5.95 20.67L3.95 20.56C6.84017 24.7655 11.0702 27.8676 15.95 29.36C16.81 29.22 19.22 27.5 21.02 26.1C23.1389 24.2819 25.124 22.3134 26.96 20.21C27.4625 19.621 27.8493 18.9425 28.1 18.21C27 18.6 26.24 18.92 26.24 18.92Z" fill="#F06351"/>
</g>
<g clip-path="url(#clip1_88223_565)">
<path d="M91.5845 26.3374C90.6895 25.0761 90.2453 23.5639 90.32 22.0332V15.6537C90.2116 14.1065 90.6281 12.5675 91.5055 11.2726C92.3748 10.2734 93.7183 9.81226 95.694 9.81226C97.6698 9.81226 98.9343 10.2734 99.7245 11.1189C100.583 12.1898 101.005 13.5306 100.91 14.8851V16.4223H97.0375V14.6545C97.0688 14.1317 96.9881 13.6082 96.8004 13.1173C96.7002 12.9191 96.5412 12.7547 96.344 12.6451C96.1469 12.5355 95.9205 12.4858 95.694 12.5024C95.1408 12.5024 94.7457 12.6561 94.5876 13.0404C94.4088 13.5865 94.3286 14.1586 94.3505 14.7314V22.9555C94.3088 23.5112 94.4178 24.0677 94.6666 24.5696C94.8247 24.9539 95.2199 25.1076 95.7731 25.1076C96.3263 25.1076 96.6424 24.9539 96.8004 24.5696C96.9801 24.0501 97.0605 23.5031 97.0375 22.9555V21.1108H100.91V22.6481C100.99 24.0246 100.571 25.3849 99.7245 26.4911C98.9343 27.4134 97.5907 27.8746 95.694 27.8746C93.7973 27.7977 92.3748 27.3366 91.5845 26.3374Z" fill="#111111"/>
<path d="M105.573 10.0441H110.077L113.397 27.5684H109.761L109.129 23.8791H106.521L105.889 27.5684H102.174L105.573 10.0441ZM108.813 21.5732L107.865 14.7326L106.916 21.5732H108.813Z" fill="#111111"/>
<path d="M116.163 12.9648H113.476V10.0441H122.88V12.8879H120.193V27.5684H116.163V12.9648Z" fill="#111111"/>
<path d="M130.072 10.0441H137.027V11.8888H132.522V17.6533H136.157V19.4211H132.522V25.8775H137.027V27.6453H129.993V10.0441H130.072Z" fill="#111111"/>
<path d="M139.081 10.0441H140.82L145.957 21.6501V10.0441H148.012V27.5684H146.431L141.215 15.5781V27.5684H139.081V10.0441Z" fill="#111111"/>
<path d="M150.383 10.0441H157.337V11.8888H152.833V17.6533H156.468V19.4211H152.833V25.8775H157.337V27.6453H150.383V10.0441Z" fill="#111111"/>
<path d="M159.392 10.0442H163.027C164.457 9.94817 165.879 10.3276 167.058 11.1203C167.927 11.812 168.322 13.0418 168.322 14.6559C168.322 16.8849 167.611 18.2684 166.11 18.7295L168.638 27.4917H166.189L163.818 19.2676H161.842V27.4917H159.313V10.0442H159.392ZM162.869 17.5766C163.684 17.6419 164.496 17.424 165.161 16.9617C165.635 16.5774 165.872 15.8088 165.872 14.6559C165.894 14.0832 165.814 13.5111 165.635 12.965C165.457 12.5731 165.152 12.249 164.766 12.0426C164.222 11.8014 163.624 11.6957 163.027 11.7352H161.921V17.4998H162.869V17.5766Z" fill="#111111"/>
<path d="M171.484 26.2617C170.662 24.9178 170.276 23.3641 170.377 21.8037V15.9623C170.358 14.8484 170.491 13.737 170.772 12.6573C171.037 11.8504 171.564 11.149 172.274 10.6589C173.156 10.1509 174.174 9.91005 175.198 9.96712C176.858 9.96712 178.043 10.3514 178.754 11.1969C179.572 12.3133 179.964 13.6727 179.861 15.0399V15.6548H177.49V15.1168C177.493 14.4731 177.44 13.8303 177.332 13.1953C177.265 12.794 177.038 12.4348 176.699 12.1961C176.255 11.9125 175.728 11.7776 175.198 11.8118C174.631 11.7765 174.07 11.9401 173.617 12.2729C173.431 12.4253 173.279 12.613 173.171 12.8244C173.062 13.0359 172.999 13.2667 172.985 13.5027C172.881 14.1899 172.828 14.8834 172.827 15.578V22.1112C172.769 23.1065 172.93 24.1024 173.301 25.0319C173.617 25.6468 174.25 25.8773 175.198 25.8773C175.572 25.9227 175.952 25.8594 176.29 25.6953C176.627 25.5311 176.907 25.2736 177.095 24.955C177.512 23.9831 177.701 22.9327 177.648 21.8806V20.6508H175.356V18.883H179.94V27.5683H178.359L178.122 25.5699C177.915 26.2396 177.483 26.8228 176.896 27.2267C176.309 27.6305 175.6 27.832 174.882 27.7989C174.229 27.8362 173.576 27.7153 172.983 27.447C172.39 27.1787 171.875 26.7714 171.484 26.2617Z" fill="#111111"/>
<path d="M184.998 21.4207L181.125 10.1221H183.496L186.262 18.5768L188.949 10.1221H191.32L187.448 21.4207V27.5695H185.077V21.4207H184.998Z" fill="#111111"/>
</g>
<defs>
<clipPath id="clip0_88223_565">
<rect width="33.32" height="37.61" fill="white"/>
</clipPath>
<clipPath id="clip1_88223_565">
<rect width="101" height="17.9855" fill="white" transform="translate(90.32 9.81226)"/>
</clipPath>
</defs>
</svg>
