<svg width="192" height="38" fill="none" xmlns="http://www.w3.org/2000/svg"><g clip-path="url(#a)"><path d="M6.07 20.72v-2.26a143.265 143.265 0 0 1 20.17-1.33c0 .6 0 1.21-.06 1.82a25.518 25.518 0 0 1 6-1.82A16.67 16.67 0 0 0 .19 20.39l5.88.33ZM27.24 24.23c-1.16 1.28-1.39 1.2-1.39 3.45v9.18A16.64 16.64 0 0 0 33.32 23a17.302 17.302 0 0 0-.32-3.1 33.113 33.113 0 0 0-5.76 4.33ZM6.36 25.72s-3.79-1.44-5.19-1.83A8.541 8.541 0 0 0 0 23.61a16.65 16.65 0 0 0 8.68 14L6.36 25.72Z" fill="#FDC305"/><path d="M26.29 17.12A89.799 89.799 0 0 0 24.89.65S24.75-.64 24 .41a14.22 14.22 0 0 0-1.2 3.94 70.34 70.34 0 0 0-12.77.34C9.24 2 7.85.75 7.18 1c-.67.25-.72 3.31-.72 3.31l-.33 14.1a143.211 143.211 0 0 1 20.16-1.29Z" fill="#F06351"/><path d="M12.41 14c0-.09 1 .68 1.41.92.41.24.61.42.61.59 0 .17-.27.34-.63.34s-.91-.12-1-.27h1.23A8.34 8.34 0 0 1 12.41 14ZM19.89 14.11l-1.09 1.33c0 .06-.17.35.18.3a7.351 7.351 0 0 0 1.22-.29c.11 0 .07-.19-.11-.17-.18.02-.69.05-1 .11l.84-1.26s.07-.13-.04-.02ZM16.75 20.2a2.3 2.3 0 0 0 1.09-1c.28-.65 0-.91-.44-1a2.43 2.43 0 0 0-1.74.34c-.39.36-.34.72-.05 1a5.34 5.34 0 0 0 1.14.66Z" fill="#000"/><path d="M16.35 21.45a1.92 1.92 0 0 1-.46.6 1.73 1.73 0 0 1-1 .38 2.15 2.15 0 0 1-1.47-.43 2.3 2.3 0 0 1-.53-.44c-.1-.11-.223-.2-.36-.26 0 0 .75 4.1 2.57 4.75 1.82.65 2.14-.75 2.2-1.13a5.61 5.61 0 0 0-.82-3.23c-.02-.31-.03-.11-.13-.24Z" fill="#F06351"/><path d="M14.71 22.59a3.44 3.44 0 0 1-2.361-1.466.14.14 0 0 1 .031-.154.14.14 0 0 1 .2 0 3.26 3.26 0 0 0 2.11 1.3 2.09 2.09 0 0 0 1.63-1l.14-.19.1.21s.37.76 1 .8c.63.04 1.05-.41 1.61-1.28a.14.14 0 0 1 .2 0 .15.15 0 0 1 .05.2c-.64 1-1.27 1.44-1.88 1.4a1.549 1.549 0 0 1-1.12-.76 2.26 2.26 0 0 1-1.71.94Z" fill="#000"/><path d="M26.24 18.92a58.634 58.634 0 0 0-5.07 5.19A31.633 31.633 0 0 1 15.88 29c-.22-.53-1.62-1.51-1.62-1.51s-3.13-2.14-5.18-3.82a34.139 34.139 0 0 1-3.13-3l-2-.11a22.57 22.57 0 0 0 12 8.8c.86-.14 3.27-1.86 5.07-3.26a58.13 58.13 0 0 0 5.94-5.89 6.15 6.15 0 0 0 1.14-2c-1.1.39-1.86.71-1.86.71Z" fill="#F06351"/></g><g clip-path="url(#b)" fill="#111"><path d="M91.585 26.337a6.855 6.855 0 0 1-1.265-4.304v-6.38a6.94 6.94 0 0 1 1.186-4.38c.869-1 2.212-1.46 4.188-1.46 1.976 0 3.24.46 4.03 1.306a5.41 5.41 0 0 1 1.186 3.766v1.537h-3.873v-1.768a3.685 3.685 0 0 0-.237-1.537 1.12 1.12 0 0 0-.456-.472 1.164 1.164 0 0 0-.65-.143c-.553 0-.948.154-1.106.538a4.838 4.838 0 0 0-.237 1.691v8.225a3.108 3.108 0 0 0 .316 1.614c.158.384.553.538 1.106.538s.87-.154 1.027-.538c.18-.52.26-1.067.237-1.614V21.11h3.873v1.537a5.768 5.768 0 0 1-1.185 3.843c-.79.922-2.134 1.384-4.031 1.384-1.897-.077-3.32-.538-4.11-1.538ZM105.573 10.044h4.504l3.32 17.524h-3.636l-.632-3.689h-2.608l-.632 3.69h-3.715l3.399-17.525Zm3.24 11.53-.948-6.841-.949 6.84h1.897ZM116.163 12.965h-2.687v-2.92h9.404v2.843h-2.687v14.68h-4.03V12.965ZM130.072 10.044h6.955v1.845h-4.505v5.764h3.635v1.768h-3.635v6.457h4.505v1.767h-7.034v-17.6h.079ZM139.081 10.044h1.739l5.137 11.606V10.044h2.055v17.524h-1.581l-5.216-11.99v11.99h-2.134V10.044ZM150.383 10.044h6.954v1.845h-4.504v5.764h3.635v1.768h-3.635v6.457h4.504v1.767h-6.954v-17.6ZM159.392 10.044h3.635a6.457 6.457 0 0 1 4.031 1.076c.869.692 1.264 1.922 1.264 3.536 0 2.229-.711 3.612-2.212 4.074l2.528 8.762h-2.449l-2.371-8.224h-1.976v8.224h-2.529V10.044h.079Zm3.477 7.533a3.525 3.525 0 0 0 2.292-.615c.474-.385.711-1.153.711-2.306a4.831 4.831 0 0 0-.237-1.691 1.974 1.974 0 0 0-.869-.922 3.693 3.693 0 0 0-1.739-.308h-1.106V17.5h.948v.077ZM171.484 26.262a7.597 7.597 0 0 1-1.107-4.458v-5.842a12.288 12.288 0 0 1 .395-3.305 3.917 3.917 0 0 1 1.502-1.998 5.275 5.275 0 0 1 2.924-.692c1.66 0 2.845.384 3.556 1.23a5.765 5.765 0 0 1 1.107 3.843v.615h-2.371v-.538a11.15 11.15 0 0 0-.158-1.922 1.532 1.532 0 0 0-.633-.999 2.493 2.493 0 0 0-1.501-.384 2.419 2.419 0 0 0-1.581.46 1.734 1.734 0 0 0-.632 1.23c-.104.688-.157 1.381-.158 2.076v6.533a6.806 6.806 0 0 0 .474 2.92c.316.616.949.846 1.897.846.374.046.754-.018 1.092-.182.337-.164.617-.421.805-.74a6.911 6.911 0 0 0 .553-3.074v-1.23h-2.292v-1.768h4.584v8.685h-1.581l-.237-1.998a3.141 3.141 0 0 1-1.226 1.657 3.29 3.29 0 0 1-2.014.572 4.05 4.05 0 0 1-1.899-.352 3.928 3.928 0 0 1-1.499-1.185ZM184.998 21.42l-3.873-11.298h2.371l2.766 8.455 2.687-8.455h2.371l-3.872 11.299v6.149h-2.371v-6.15h-.079Z"/></g><defs><clipPath id="a"><path fill="#fff" d="M0 0h33.32v37.61H0z"/></clipPath><clipPath id="b"><path fill="#fff" transform="translate(90.32 9.812)" d="M0 0h101v17.985H0z"/></clipPath></defs></svg>